/vscmnt/brussel_pixiu_data/_data_brussel/112/vsc11236/PredSimResults/SUBJ04opt3D/weighted-expIG/worker_01.mot
version=1
nRows=11
nColumns=50
inDegrees=yes
endheader
                time	         pelvis_tilt	         pelvis_list	     pelvis_rotation	           pelvis_tx	           pelvis_ty	           pelvis_tz	       hip_flexion_r	     hip_adduction_r	      hip_rotation_r	        knee_angle_r	       ankle_angle_r	         mtp_angle_r	       hip_flexion_l	     hip_adduction_l	      hip_rotation_l	        knee_angle_l	       ankle_angle_l	         mtp_angle_l	    lumbar_extension	      lumbar_bending	     lumbar_rotation	 ercspn_r/activation	 intobl_r/activation	 extobl_r/activation	    abd_r/activation	    add_r/activation	hamstrings_r/activation	bifemsh_r/activation	glut_max_r/activation	iliopsoas_r/activation	rect_fem_r/activation	  vasti_r/activation	gastroc_r/activation	 soleus_r/activation	tib_ant_r/activation	 ercspn_l/activation	 intobl_l/activation	 extobl_l/activation	    abd_l/activation	    add_l/activation	hamstrings_l/activation	bifemsh_l/activation	glut_max_l/activation	iliopsoas_l/activation	rect_fem_l/activation	  vasti_l/activation	gastroc_l/activation	 soleus_l/activation	tib_ant_l/activation	
          1.33612951	         -1.69247713	          0.22804872	          8.87521723	          1.20251656	          0.88352647	         -0.01109335	         28.63023396	         -3.17924299	        -10.85903467	        -11.22819698	          3.97449464	          0.23132110	        -12.39571808	         -0.63190710	         -7.92176909	         -7.64690907	         13.26872410	         19.74308728	        -13.83399891	         -3.69071826	         -7.74171643	          0.04265765	          0.22872744	          0.02223959	          0.00999999	          0.27337391	          0.06669126	          0.00999999	          0.01599728	          0.17504334	          0.03894926	          0.04718863	          0.00999999	          0.00999999	          0.33133191	          0.01815718	          0.00999999	          0.00999999	          0.06720660	          0.00999999	          0.02895845	          0.20999352	          0.01809244	          0.01903933	          0.00999999	          0.00999999	          0.24774307	          0.25050240	          0.00999999	
          1.34949081	         -1.79841496	          0.21921228	          8.65889759	          1.21786490	          0.88126826	         -0.01070225	         28.48808484	         -3.02710232	        -11.07789180	        -12.42225446	          3.78187908	          0.22485966	        -13.06395407	         -0.75097923	         -8.59655500	         -8.16213015	         13.01177301	         21.16665172	        -13.33190879	         -3.09295266	         -7.81938402	          0.03488841	          0.22682458	          0.01818910	          0.00999999	          0.27855265	          0.06898031	          0.01548266	          0.02435562	          0.14316269	          0.03185543	          0.03859416	          0.01803990	          0.01934531	          0.33344039	          0.02444620	          0.00999999	          0.00999999	          0.05496626	          0.00999999	          0.02368426	          0.17174740	          0.01479726	          0.01557170	          0.00999999	          0.00999999	          0.22864086	          0.25022161	          0.00999999	
          1.36285210	         -1.88895494	          0.15106006	          8.39984793	          1.23360669	          0.87915880	         -0.01025806	         28.23686350	         -2.85954542	        -11.18788601	        -13.57205148	          3.45994253	          0.22246209	        -13.68199216	         -0.94040817	         -9.30234925	         -8.83778297	         12.68047820	         22.62716822	        -12.79419896	         -2.40409944	         -7.87109011	          0.02853418	          0.20988767	          0.01487632	          0.02562799	          0.22781984	          0.07030039	          0.01266283	          0.02948500	          0.11708846	          0.02605360	          0.06088417	          0.01475429	          0.01582195	          0.36206995	          0.02628176	          0.00999999	          0.00999999	          0.04495525	          0.00999999	          0.01937064	          0.14046704	          0.01210224	          0.01273562	          0.00999999	          0.00999999	          0.18699849	          0.23961677	          0.00999999	
          1.37621340	         -1.96498786	          0.03797832	          8.08679228	          1.24954484	          0.87738477	         -0.00970320	         27.94623198	         -2.66056709	        -11.39409418	        -14.63781205	          3.02084151	          0.20382288	        -14.18276012	         -1.19333063	        -10.04637728	         -9.77070856	         12.23721085	         24.12232989	        -12.25122927	         -1.64734777	         -7.88740757	          0.02362197	          0.17166082	          0.01216689	          0.03897012	          0.20725155	          0.07249499	          0.01035655	          0.02411490	          0.09576314	          0.02130846	          0.13300896	          0.01206709	          0.01294030	          0.39011751	          0.03387702	          0.00999999	          0.00999999	          0.03676755	          0.00999999	          0.01584267	          0.11488377	          0.00999999	          0.01041609	          0.00999999	          0.00999999	          0.15294045	          0.22584876	          0.00999999	
          1.38957469	         -2.02691708	         -0.11806294	          7.72974059	          1.26555756	          0.87613367	         -0.00902548	         27.59482658	         -2.42662038	        -11.71532295	        -15.63436159	          2.71713945	          0.18109060	        -14.50304360	         -1.52298355	        -10.81805262	        -11.05013255	         11.62801177	         25.66984770	        -11.72030290	         -0.83167773	         -7.86851045	          0.03122470	          0.14039623	          0.00999999	          0.07179202	          0.18121694	          0.07128463	          0.01000000	          0.01972285	          0.07832179	          0.01742755	          0.19163088	          0.00999999	          0.01058348	          0.40018378	          0.05314355	          0.00999999	          0.00999999	          0.03007108	          0.00999999	          0.02164495	          0.09395999	          0.00999999	          0.00999999	          0.00999999	          0.00999999	          0.12508540	          0.19476499	          0.00999999	
          1.40293599	         -2.07581070	         -0.31319151	          7.34260004	          1.28149846	          0.87560202	         -0.00821820	         27.15871409	         -2.14367599	        -12.08283862	        -16.52659210	          2.64059178	          0.15862998	        -14.56897682	         -1.94538789	        -11.61113112	        -12.77947675	         10.80259431	         27.26726400	        -11.21829998	          0.03086752	         -7.81729430	          0.03376232	          0.11482586	          0.00999999	          0.09617382	          0.16084135	          0.07097449	          0.00999999	          0.03278646	          0.06405704	          0.01425347	          0.22094380	          0.00999999	          0.00999999	          0.39651889	          0.08601934	          0.00999999	          0.00999999	          0.02459423	          0.00999999	          0.04596179	          0.07684705	          0.01534319	          0.00999999	          0.00999999	          0.01282410	          0.10230359	          0.15929244	          0.00999999	
          1.41629728	         -2.11228224	         -0.53822443	          6.93976786	          1.29723827	          0.87589428	         -0.00728229	         26.63898301	         -1.80464200	        -12.41196704	        -17.30148683	          2.77692012	          0.14669825	        -14.32941266	         -2.47061639	        -12.42440086	        -15.02155033	          9.71254124	         28.88751499	        -10.75835622	          0.92262929	         -7.74012696	          0.03347512	          0.09391262	          0.00999999	          0.11088405	          0.14877497	          0.07335524	          0.01000001	          0.02681506	          0.05239033	          0.01165748	          0.23131077	          0.00999999	          0.00999999	          0.37344437	          0.09830433	          0.00999999	          0.00999999	          0.02011488	          0.02266610	          0.07853305	          0.06285089	          0.01879445	          0.00999999	          0.00999999	          0.01827876	          0.08367104	          0.13028050	          0.00999999	
          1.42965858	         -2.13661506	         -0.77039570	          6.53260251	          1.31270701	          0.87697899	         -0.00623293	         26.02755443	         -1.41911307	        -12.63727955	        -17.92987579	          3.08820520	          0.16477078	        -13.76940517	         -3.09010933	        -13.24630545	        -17.78322955	          8.32478015	         30.45728548	        -10.34797697	          1.81376282	         -7.64182633	          0.03256768	          0.07680831	          0.00999999	          0.11596452	          0.15980842	          0.07756615	          0.00999999	          0.03311812	          0.04284848	          0.00999999	          0.24167610	          0.00999999	          0.00999999	          0.33946646	          0.08995288	          0.00999999	          0.00999999	          0.01645136	          0.12708281	          0.09109814	          0.05140386	          0.01537142	          0.00999999	          0.00999999	          0.01494965	          0.06843203	          0.10655251	          0.00999999	
          1.44301987	         -2.14934416	         -0.97508931	          6.12682341	          1.32784162	          0.87876305	         -0.00509676	         25.29552580	         -1.01356648	        -12.73311476	        -18.33553421	          3.45671908	          0.24878322	        -12.87094025	         -3.78281200	        -14.07067116	        -21.07912342	          6.62916799	         31.83797029	         -9.99590938	          2.66447621	         -7.52143221	          0.02663612	          0.06281921	          0.00999999	          0.11800119	          0.15806716	          0.08358076	          0.00999999	          0.02708633	          0.03504448	          0.00999999	          0.23453218	          0.00999999	          0.00999999	          0.30879207	          0.08125347	          0.01827876	          0.00999999	          0.01345507	          0.15202129	          0.10391296	          0.04204167	          0.01257182	          0.00999999	          0.00999999	          0.01222687	          0.05596850	          0.08714610	          0.00999999	
          1.45638117	         -2.15032328	         -1.11684184	          5.72519922	          1.34258878	          0.88109331	         -0.00389777	         24.44186505	         -0.63378086	        -12.72686807	        -18.50437278	          3.79649830	          0.39818703	        -11.62969150	         -4.52896329	        -14.90470670	        -24.91157079	          4.73188017	         32.66123202	         -9.71031575	          3.43340723	         -7.37420060	          0.02178489	          0.05137795	          0.00999999	          0.11665433	          0.15835718	          0.08904078	          0.00999999	          0.03110376	          0.02866183	          0.00999999	          0.22347447	          0.00999999	          0.00999999	          0.28100982	          0.06645478	          0.01494965	          0.00999999	          0.01100450	          0.20212046	          0.08498730	          0.03438462	          0.01028211	          0.00999999	          0.00999999	          0.00999999	          0.04577495	          0.07127417	          0.02025815	
          1.46974246	         -2.13859585	         -1.16574617	          5.32580459	          1.35690936	          0.88379115	         -0.00266379	         23.48919597	         -0.32538018	        -12.64893031	        -18.48173540	          4.11936684	          0.63861423	        -10.05412358	         -5.31728996	        -15.74854274	        -29.30176768	          2.89766168	         32.32433058	         -9.49674196	          4.08746705	         -7.19362933	          0.01781720	          0.04202048	          0.00999999	          0.11573752	          0.12951558	          0.09274518	          0.00999999	          0.05387624	          0.02344165	          0.00999999	          0.21220943	          0.00999999	          0.00999999	          0.25522783	          0.06969622	          0.01222687	          0.00999999	          0.00999999	          0.25275666	          0.06950856	          0.03347088	          0.00999999	          0.00999999	          0.00999999	          0.00999999	          0.03743796	          0.05829301	          0.06347668	
